<svg width="229" height="287" viewBox="0 0 229 287" fill="none" xmlns="http://www.w3.org/2000/svg">
<path d="M15.4 285.72C14.28 285.72 13.3467 285.113 12.6 283.9C12.04 283.34 11.6667 282.547 11.48 281.52C11.3867 280.587 11.7133 278.86 12.46 276.34C13.2067 273.727 14.4667 269.76 16.24 264.44C17.1733 260.893 17.92 258.327 18.48 256.74C19.04 255.06 19.32 253.847 19.32 253.1C19.32 252.073 19.4133 251.233 19.6 250.58C19.88 249.833 20.02 249.133 20.02 248.48C20.58 248.48 21.14 247.967 21.7 246.94C22.26 245.913 22.7267 244.513 23.1 242.74C23.4733 241.153 23.8 239.893 24.08 238.96C24.4533 237.933 24.64 237.233 24.64 236.86C25.1067 236.113 25.5733 234.947 26.04 233.36C26.6 231.773 27.44 229.86 28.56 227.62C29.3067 224.82 30.1467 221.927 31.08 218.94C32.0133 215.86 32.9467 213.013 33.88 210.4C34.9067 207.693 35.7467 205.593 36.4 204.1C37.4267 201.207 38.22 199.2 38.78 198.08C39.34 196.867 39.34 196.073 38.78 195.7C38.1267 195.233 37.9867 194.44 38.36 193.32C38.7333 192.2 39.76 190.94 41.44 189.54C42.4667 188.327 43.3533 187.487 44.1 187.02C44.8467 186.46 45.78 186.18 46.9 186.18C48.1133 186.18 49.84 186.273 52.08 186.46C53.76 186.553 55.5333 186.6 57.4 186.6C59.36 186.6 60.5733 186.6 61.04 186.6C61.88 186.973 62.9067 187.393 64.12 187.86C65.3333 188.233 66.4067 188.607 67.34 188.98C68.3667 189.353 68.88 189.68 68.88 189.96C68.88 190.52 69.0667 190.893 69.44 191.08C69.9067 191.173 70.3733 191.267 70.84 191.36C71.4933 191.36 72.38 191.873 73.5 192.9C74.62 193.833 75.7867 195.047 77 196.54C78.2133 197.94 79.1467 199.433 79.8 201.02C80.5467 202.607 81.1067 204.1 81.48 205.5C81.9467 206.9 81.9467 208.907 81.48 211.52C81.3867 212.92 81.1533 214.32 80.78 215.72C80.5 217.12 80.1733 218.053 79.8 218.52C79.24 218.893 78.7267 219.36 78.26 219.92C77.7933 220.48 77.56 220.993 77.56 221.46C77.56 221.833 77.2333 222.58 76.58 223.7C75.9267 224.727 75.0867 225.94 74.06 227.34C73.0333 228.74 71.9133 230.14 70.7 231.54C69.4867 232.94 68.32 234.153 67.2 235.18C65.9867 236.673 64.54 238.073 62.86 239.38C61.2733 240.687 59.8267 241.76 58.52 242.6C56.0933 243.72 53.3867 244.84 50.4 245.96C47.5067 247.08 44.7067 248.013 42 248.76C39.3867 249.507 37.1933 249.833 35.42 249.74C32.7133 250.113 30.94 250.487 30.1 250.86C29.3533 251.14 28.7933 251.933 28.42 253.24C27.9533 254.453 27.4867 255.713 27.02 257.02C26.6467 258.233 26.46 259.073 26.46 259.54C26.2733 259.913 25.8067 261.08 25.06 263.04C24.4067 264.907 23.66 267.1 22.82 269.62C22.0733 272.14 21.3267 274.613 20.58 277.04C19.8333 279.467 19.2733 281.473 18.9 283.06C18.5267 284.367 18.06 285.113 17.5 285.3C16.94 285.58 16.24 285.72 15.4 285.72ZM32.76 242.32C33.1333 242.693 34.58 242.74 37.1 242.46C39.62 242.18 42.3267 241.48 45.22 240.36C47.0867 239.707 48.9533 238.913 50.82 237.98C52.78 237.047 54.6467 236.02 56.42 234.9C57.3533 234.247 58.7533 233.08 60.62 231.4C62.4867 229.72 64.3533 227.713 66.22 225.38C66.5 224.913 66.9667 224.027 67.62 222.72C68.3667 221.32 69.02 220.013 69.58 218.8C70.42 217.493 71.26 215.58 72.1 213.06C72.94 210.447 73.1267 208.3 72.66 206.62C72.1933 204.193 70.98 201.953 69.02 199.9C67.06 197.753 64.7267 196.307 62.02 195.56C59.9667 195.187 58.24 195 56.84 195C55.5333 195 54.0867 195.14 52.5 195.42C51.0067 195.887 49.8867 196.54 49.14 197.38C48.4867 198.22 47.6 199.993 46.48 202.7C45.8267 204.007 44.8933 206.013 43.68 208.72C42.4667 211.333 41.44 213.807 40.6 216.14C38.92 222.3 37.24 227.387 35.56 231.4C33.9733 235.32 32.9933 237.793 32.62 238.82C32.7133 239.847 32.6667 240.593 32.48 241.06C32.2933 241.433 32.3867 241.853 32.76 242.32ZM81.8486 274.52C81.1019 273.773 80.5419 272.84 80.1686 271.72C79.8886 270.6 79.7953 269.48 79.8886 268.36C79.9819 267.24 80.2153 266.307 80.5886 265.56C80.5886 264.813 80.6819 264.253 80.8686 263.88C81.1486 263.413 81.2419 262.993 81.1486 262.62C81.0553 262.247 81.1486 261.593 81.4286 260.66C81.7086 259.727 81.9886 258.84 82.2686 258C82.9219 256.507 83.6219 254.733 84.3686 252.68C85.1153 250.533 85.8153 248.433 86.4686 246.38C87.1219 244.327 87.6819 242.553 88.1486 241.06C88.6153 239.567 88.8953 238.633 88.9886 238.26C88.9886 237.14 89.7353 236.533 91.2286 236.44C92.3486 236.067 93.1886 236.067 93.7486 236.44C94.3086 236.72 95.0553 237.607 95.9886 239.1C96.7353 239.847 97.0153 240.967 96.8286 242.46C96.6419 243.953 96.0353 245.82 95.0086 248.06C94.6353 248.807 94.1686 249.88 93.6086 251.28C93.1419 252.68 92.8153 253.94 92.6286 255.06C92.2553 255.807 91.7886 256.88 91.2286 258.28C90.7619 259.587 90.3419 260.847 89.9686 262.06C89.7819 262.527 89.5953 263.227 89.4086 264.16C89.2219 265 88.9886 265.933 88.7086 266.96C88.4286 267.893 88.0553 268.733 87.5886 269.48C86.7486 273.307 85.9553 275.547 85.2086 276.2C84.5553 276.853 83.4353 276.293 81.8486 274.52ZM95.4286 217.68C94.9619 217.213 94.5419 216.56 94.1686 215.72C93.7953 214.787 93.5619 213.947 93.4686 213.2C93.3753 212.36 93.4686 211.94 93.7486 211.94C94.4953 211.847 95.3819 211.053 96.4086 209.56C97.4353 208.067 97.8553 206.76 97.6686 205.64C97.6686 205.267 97.8086 204.94 98.0886 204.66C98.3686 204.287 98.6953 204.053 99.0686 203.96C100.189 203.213 101.262 203.12 102.289 203.68C103.409 204.147 104.435 205.127 105.369 206.62C106.209 208.393 106.442 209.887 106.069 211.1C105.695 212.22 104.669 213.807 102.989 215.86C101.589 217.727 100.282 218.753 99.0686 218.94C97.9486 219.127 96.7353 218.707 95.4286 217.68ZM121.682 277.46C118.975 277.927 116.502 277.787 114.262 277.04C112.022 276.2 110.202 274.847 108.802 272.98C107.495 271.02 106.842 268.547 106.842 265.56C106.562 262.76 106.889 259.54 107.822 255.9C108.755 252.167 110.109 248.433 111.882 244.7C113.749 240.967 115.755 237.747 117.902 235.04C119.769 232.8 121.635 230.747 123.502 228.88C125.369 227.013 127.049 225.753 128.542 225.1C129.849 224.54 131.062 224.213 132.182 224.12C133.395 223.933 134.375 223.84 135.122 223.84C136.615 224.213 138.202 224.913 139.882 225.94C141.655 226.873 142.542 227.9 142.542 229.02C142.542 229.02 142.635 229.16 142.822 229.44C143.102 229.627 143.242 229.72 143.242 229.72C143.802 229.72 144.269 230.327 144.642 231.54C145.109 232.753 145.389 234.153 145.482 235.74C145.575 237.233 145.342 238.493 144.782 239.52C144.409 241.293 143.755 242.833 142.822 244.14C141.889 245.447 141.049 246.1 140.302 246.1C139.929 246.1 139.555 246.147 139.182 246.24C138.902 246.24 138.762 246.473 138.762 246.94C138.762 247.407 138.482 247.593 137.922 247.5C137.455 247.407 136.942 247.127 136.382 246.66C135.822 246.1 135.402 245.447 135.122 244.7C135.122 244.233 135.309 243.44 135.682 242.32C136.055 241.2 136.429 239.753 136.802 237.98C137.362 235.367 137.315 233.687 136.662 232.94C136.009 232.1 134.749 232.053 132.882 232.8C130.549 234.107 128.309 235.927 126.162 238.26C124.109 240.593 122.195 243.627 120.422 247.36C118.649 251 117.062 255.573 115.662 261.08C115.102 263.227 114.869 265.093 114.962 266.68C115.149 268.267 115.382 269.107 115.662 269.2C116.969 269.573 118.742 269.667 120.982 269.48C123.222 269.2 124.855 268.78 125.882 268.22C127.375 267.473 129.055 266.493 130.922 265.28C132.789 263.973 134.422 262.807 135.822 261.78C136.289 261.5 136.849 261.033 137.502 260.38C138.155 259.727 138.855 259.213 139.602 258.84C140.349 257.72 141.002 257.067 141.562 256.88C142.122 256.693 142.962 256.6 144.082 256.6C144.829 256.787 145.529 257.067 146.182 257.44C146.835 257.813 147.255 258.187 147.442 258.56C147.722 258.933 147.582 259.26 147.022 259.54C146.649 259.54 146.415 259.68 146.322 259.96C146.322 260.147 146.322 260.24 146.322 260.24C146.509 260.613 146.089 261.407 145.062 262.62C144.129 263.74 142.915 265 141.422 266.4C139.929 267.8 138.482 269.013 137.082 270.04C135.775 270.973 134.842 271.44 134.282 271.44C133.349 271.44 132.882 271.72 132.882 272.28C132.882 272.467 132.182 272.933 130.782 273.68C129.475 274.427 127.935 275.173 126.162 275.92C124.482 276.667 122.989 277.18 121.682 277.46ZM157.168 275.92C156.234 275.267 155.534 274.66 155.068 274.1C154.601 273.54 154.414 272.747 154.508 271.72C154.694 270.32 154.974 268.873 155.348 267.38C155.721 265.793 156.188 264.253 156.748 262.76C157.028 261.08 157.354 259.4 157.728 257.72C158.194 256.04 158.941 254.453 159.968 252.96C161.181 249.507 162.441 246.1 163.748 242.74C165.054 239.287 166.174 235.693 167.108 231.96C168.508 228.6 169.768 225.613 170.888 223C172.101 220.387 173.548 217.027 175.228 212.92C176.161 210.773 176.954 208.393 177.608 205.78C178.354 203.073 179.474 200.693 180.968 198.64C181.621 197.8 182.088 197.1 182.368 196.54C182.741 195.887 183.114 195.28 183.488 194.72C183.674 194.16 184.281 193.973 185.308 194.16C186.428 194.347 187.221 194.767 187.688 195.42C188.154 195.327 188.714 195.933 189.368 197.24C190.021 198.547 190.254 199.573 190.068 200.32C190.068 201.347 189.694 202.467 188.948 203.68C188.574 204.053 188.201 204.613 187.828 205.36C187.454 206.013 186.894 206.9 186.148 208.02C185.774 209.233 185.401 210.447 185.028 211.66C184.654 212.873 184.234 213.993 183.768 215.02C183.301 216.047 182.788 217.073 182.228 218.1C181.668 219.127 181.294 219.967 181.108 220.62C180.268 222.767 179.334 224.867 178.308 226.92C177.374 228.88 176.534 230.98 175.788 233.22C175.041 235.367 174.248 237.653 173.408 240.08C172.661 242.413 171.634 244.653 170.328 246.8C169.674 247.733 169.161 248.993 168.788 250.58C168.414 252.167 168.041 253.707 167.668 255.2C167.014 256.88 166.408 258.42 165.848 259.82C165.381 261.22 165.148 262.107 165.148 262.48C164.494 264.533 163.981 266.587 163.608 268.64C163.234 270.6 162.628 272.327 161.788 273.82C161.694 275.22 161.274 276.153 160.528 276.62C159.874 277.087 158.754 276.853 157.168 275.92ZM190.628 278.16C189.134 277.973 188.014 277.693 187.268 277.32C186.521 276.853 185.121 275.873 183.068 274.38C181.948 273.26 180.408 271.533 178.448 269.2C176.488 266.867 174.528 264.393 172.568 261.78C170.608 259.073 168.974 256.787 167.668 254.92L173.408 247.22C174.621 248.713 175.601 250.113 176.348 251.42C177.094 252.727 177.701 253.613 178.167 254.08C180.314 257.253 181.994 259.82 183.208 261.78C184.514 263.74 185.681 265.327 186.708 266.54C187.734 267.753 188.808 268.827 189.928 269.76C191.141 270.693 192.634 271.673 194.408 272.7C194.688 272.887 194.968 273.167 195.248 273.54C195.528 273.913 195.621 274.473 195.528 275.22C195.154 276.247 194.734 276.9 194.268 277.18C193.894 277.367 192.681 277.693 190.628 278.16ZM167.248 253.38C166.688 251.793 166.874 250.207 167.808 248.62C168.834 246.94 169.954 245.773 171.168 245.12C171.541 244.467 171.914 244.047 172.288 243.86C172.754 243.58 173.034 243.253 173.128 242.88C173.314 242.507 173.781 241.993 174.528 241.34C175.368 240.687 176.114 240.08 176.768 239.52C178.261 238.587 179.941 237.467 181.808 236.16C183.768 234.76 185.634 233.36 187.408 231.96C189.181 230.56 190.674 229.347 191.888 228.32C193.194 227.293 193.988 226.64 194.268 226.36C194.548 225.987 194.921 225.753 195.388 225.66C195.948 225.473 196.648 225.567 197.488 225.94C198.608 226.22 199.354 226.687 199.728 227.34C200.101 227.9 200.288 229.02 200.288 230.7C200.568 231.727 200.148 232.847 199.028 234.06C198.001 235.18 196.414 236.44 194.268 237.84C193.521 238.307 192.494 239.007 191.188 239.94C189.974 240.873 188.901 241.76 187.968 242.6C187.314 242.973 186.334 243.627 185.028 244.56C183.814 245.4 182.741 246.24 181.808 247.08C181.061 247.547 180.081 248.387 178.868 249.6C177.654 250.72 176.441 251.56 175.228 252.12C172.241 254.92 170.281 256.413 169.348 256.6C168.414 256.787 167.714 255.713 167.248 253.38Z" fill="white"/>
<path d="M35.4 140.72C34.28 140.72 33.3467 140.113 32.6 138.9C32.04 138.34 31.6667 137.547 31.48 136.52C31.3867 135.587 31.7133 133.86 32.46 131.34C33.2067 128.727 34.4667 124.76 36.24 119.44C37.1733 115.893 37.92 113.327 38.48 111.74C39.04 110.06 39.32 108.847 39.32 108.1C39.32 107.073 39.4133 106.233 39.6 105.58C39.88 104.833 40.02 104.133 40.02 103.48C40.58 103.48 41.14 102.967 41.7 101.94C42.26 100.913 42.7267 99.5133 43.1 97.74C43.4733 96.1533 43.8 94.8933 44.08 93.96C44.4533 92.9333 44.64 92.2333 44.64 91.86C45.1067 91.1133 45.5733 89.9467 46.04 88.36C46.6 86.7733 47.44 84.86 48.56 82.62C49.3067 79.82 50.1467 76.9267 51.08 73.94C52.0133 70.86 52.9467 68.0133 53.88 65.4C54.9067 62.6933 55.7467 60.5933 56.4 59.1C57.4267 56.2067 58.22 54.2 58.78 53.08C59.34 51.8667 59.34 51.0733 58.78 50.7C58.1267 50.2333 57.9867 49.44 58.36 48.32C58.7333 47.2 59.76 45.94 61.44 44.54C62.4667 43.3267 63.3533 42.4867 64.1 42.02C64.8467 41.46 65.78 41.18 66.9 41.18C68.1133 41.18 69.84 41.2733 72.08 41.46C73.76 41.5533 75.5333 41.6 77.4 41.6C79.36 41.6 80.5733 41.6 81.04 41.6C81.88 41.9733 82.9067 42.3933 84.12 42.86C85.3333 43.2333 86.4067 43.6067 87.34 43.98C88.3667 44.3533 88.88 44.68 88.88 44.96C88.88 45.52 89.0667 45.8933 89.44 46.08C89.9067 46.1733 90.3733 46.2667 90.84 46.36C91.4933 46.36 92.38 46.8733 93.5 47.9C94.62 48.8333 95.7867 50.0467 97 51.54C98.2133 52.94 99.1467 54.4333 99.8 56.02C100.547 57.6067 101.107 59.1 101.48 60.5C101.947 61.9 101.947 63.9067 101.48 66.52C101.387 67.92 101.153 69.32 100.78 70.72C100.5 72.12 100.173 73.0533 99.8 73.52C99.24 73.8933 98.7267 74.36 98.26 74.92C97.7933 75.48 97.56 75.9933 97.56 76.46C97.56 76.8333 97.2333 77.58 96.58 78.7C95.9267 79.7267 95.0867 80.94 94.06 82.34C93.0333 83.74 91.9133 85.14 90.7 86.54C89.4867 87.94 88.32 89.1533 87.2 90.18C85.9867 91.6733 84.54 93.0733 82.86 94.38C81.2733 95.6867 79.8267 96.76 78.52 97.6C76.0933 98.72 73.3867 99.84 70.4 100.96C67.5067 102.08 64.7067 103.013 62 103.76C59.3867 104.507 57.1933 104.833 55.42 104.74C52.7133 105.113 50.94 105.487 50.1 105.86C49.3533 106.14 48.7933 106.933 48.42 108.24C47.9533 109.453 47.4867 110.713 47.02 112.02C46.6467 113.233 46.46 114.073 46.46 114.54C46.2733 114.913 45.8067 116.08 45.06 118.04C44.4067 119.907 43.66 122.1 42.82 124.62C42.0733 127.14 41.3267 129.613 40.58 132.04C39.8333 134.467 39.2733 136.473 38.9 138.06C38.5267 139.367 38.06 140.113 37.5 140.3C36.94 140.58 36.24 140.72 35.4 140.72ZM52.76 97.32C53.1333 97.6933 54.58 97.74 57.1 97.46C59.62 97.18 62.3267 96.48 65.22 95.36C67.0867 94.7067 68.9533 93.9133 70.82 92.98C72.78 92.0467 74.6467 91.02 76.42 89.9C77.3533 89.2467 78.7533 88.08 80.62 86.4C82.4867 84.72 84.3533 82.7133 86.22 80.38C86.5 79.9133 86.9667 79.0267 87.62 77.72C88.3667 76.32 89.02 75.0133 89.58 73.8C90.42 72.4933 91.26 70.58 92.1 68.06C92.94 65.4467 93.1267 63.3 92.66 61.62C92.1933 59.1933 90.98 56.9533 89.02 54.9C87.06 52.7533 84.7267 51.3067 82.02 50.56C79.9667 50.1867 78.24 50 76.84 50C75.5333 50 74.0867 50.14 72.5 50.42C71.0067 50.8867 69.8867 51.54 69.14 52.38C68.4867 53.22 67.6 54.9933 66.48 57.7C65.8267 59.0067 64.8933 61.0133 63.68 63.72C62.4667 66.3333 61.44 68.8067 60.6 71.14C58.92 77.3 57.24 82.3867 55.56 86.4C53.9733 90.32 52.9933 92.7933 52.62 93.82C52.7133 94.8467 52.6667 95.5933 52.48 96.06C52.2933 96.4333 52.3867 96.8533 52.76 97.32ZM101.849 129.52C101.102 128.773 100.542 127.84 100.169 126.72C99.8886 125.6 99.7953 124.48 99.8886 123.36C99.9819 122.24 100.215 121.307 100.589 120.56C100.589 119.813 100.682 119.253 100.869 118.88C101.149 118.413 101.242 117.993 101.149 117.62C101.055 117.247 101.149 116.593 101.429 115.66C101.709 114.727 101.989 113.84 102.269 113C102.922 111.507 103.622 109.733 104.369 107.68C105.115 105.533 105.815 103.433 106.469 101.38C107.122 99.3267 107.682 97.5533 108.149 96.06C108.615 94.5667 108.895 93.6333 108.989 93.26C108.989 92.14 109.735 91.5333 111.229 91.44C112.349 91.0667 113.189 91.0667 113.749 91.44C114.309 91.72 115.055 92.6067 115.989 94.1C116.735 94.8467 117.015 95.9667 116.829 97.46C116.642 98.9533 116.035 100.82 115.009 103.06C114.635 103.807 114.169 104.88 113.609 106.28C113.142 107.68 112.815 108.94 112.629 110.06C112.255 110.807 111.789 111.88 111.229 113.28C110.762 114.587 110.342 115.847 109.969 117.06C109.782 117.527 109.595 118.227 109.409 119.16C109.222 120 108.989 120.933 108.709 121.96C108.429 122.893 108.055 123.733 107.589 124.48C106.749 128.307 105.955 130.547 105.209 131.2C104.555 131.853 103.435 131.293 101.849 129.52ZM115.429 72.68C114.962 72.2133 114.542 71.56 114.169 70.72C113.795 69.7867 113.562 68.9467 113.469 68.2C113.375 67.36 113.469 66.94 113.749 66.94C114.495 66.8467 115.382 66.0533 116.409 64.56C117.435 63.0667 117.855 61.76 117.669 60.64C117.669 60.2667 117.809 59.94 118.089 59.66C118.369 59.2867 118.695 59.0533 119.069 58.96C120.189 58.2133 121.262 58.12 122.289 58.68C123.409 59.1467 124.435 60.1267 125.369 61.62C126.209 63.3933 126.442 64.8867 126.069 66.1C125.695 67.22 124.669 68.8067 122.989 70.86C121.589 72.7267 120.282 73.7533 119.069 73.94C117.949 74.1267 116.735 73.7067 115.429 72.68ZM141.682 132.46C138.975 132.927 136.502 132.787 134.262 132.04C132.022 131.2 130.202 129.847 128.802 127.98C127.495 126.02 126.842 123.547 126.842 120.56C126.562 117.76 126.889 114.54 127.822 110.9C128.755 107.167 130.109 103.433 131.882 99.7C133.749 95.9667 135.755 92.7467 137.902 90.04C139.769 87.8 141.635 85.7467 143.502 83.88C145.369 82.0133 147.049 80.7533 148.542 80.1C149.849 79.54 151.062 79.2133 152.182 79.12C153.395 78.9333 154.375 78.84 155.122 78.84C156.615 79.2133 158.202 79.9133 159.882 80.94C161.655 81.8733 162.542 82.9 162.542 84.02C162.542 84.02 162.635 84.16 162.822 84.44C163.102 84.6267 163.242 84.72 163.242 84.72C163.802 84.72 164.269 85.3267 164.642 86.54C165.109 87.7533 165.389 89.1533 165.482 90.74C165.575 92.2333 165.342 93.4933 164.782 94.52C164.409 96.2933 163.755 97.8333 162.822 99.14C161.889 100.447 161.049 101.1 160.302 101.1C159.929 101.1 159.555 101.147 159.182 101.24C158.902 101.24 158.762 101.473 158.762 101.94C158.762 102.407 158.482 102.593 157.922 102.5C157.455 102.407 156.942 102.127 156.382 101.66C155.822 101.1 155.402 100.447 155.122 99.7C155.122 99.2333 155.309 98.44 155.682 97.32C156.055 96.2 156.429 94.7533 156.802 92.98C157.362 90.3667 157.315 88.6867 156.662 87.94C156.009 87.1 154.749 87.0533 152.882 87.8C150.549 89.1067 148.309 90.9267 146.162 93.26C144.109 95.5933 142.195 98.6267 140.422 102.36C138.649 106 137.062 110.573 135.662 116.08C135.102 118.227 134.869 120.093 134.962 121.68C135.149 123.267 135.382 124.107 135.662 124.2C136.969 124.573 138.742 124.667 140.982 124.48C143.222 124.2 144.855 123.78 145.882 123.22C147.375 122.473 149.055 121.493 150.922 120.28C152.789 118.973 154.422 117.807 155.822 116.78C156.289 116.5 156.849 116.033 157.502 115.38C158.155 114.727 158.855 114.213 159.602 113.84C160.349 112.72 161.002 112.067 161.562 111.88C162.122 111.693 162.962 111.6 164.082 111.6C164.829 111.787 165.529 112.067 166.182 112.44C166.835 112.813 167.255 113.187 167.442 113.56C167.722 113.933 167.582 114.26 167.022 114.54C166.649 114.54 166.415 114.68 166.322 114.96C166.322 115.147 166.322 115.24 166.322 115.24C166.509 115.613 166.089 116.407 165.062 117.62C164.129 118.74 162.915 120 161.422 121.4C159.929 122.8 158.482 124.013 157.082 125.04C155.775 125.973 154.842 126.44 154.282 126.44C153.349 126.44 152.882 126.72 152.882 127.28C152.882 127.467 152.182 127.933 150.782 128.68C149.475 129.427 147.935 130.173 146.162 130.92C144.482 131.667 142.989 132.18 141.682 132.46ZM177.168 130.92C176.234 130.267 175.534 129.66 175.068 129.1C174.601 128.54 174.414 127.747 174.508 126.72C174.694 125.32 174.974 123.873 175.348 122.38C175.721 120.793 176.188 119.253 176.748 117.76C177.028 116.08 177.354 114.4 177.728 112.72C178.194 111.04 178.941 109.453 179.968 107.96C181.181 104.507 182.441 101.1 183.748 97.74C185.054 94.2867 186.174 90.6933 187.108 86.96C188.508 83.6 189.768 80.6133 190.888 78C192.101 75.3867 193.548 72.0267 195.228 67.92C196.161 65.7733 196.954 63.3933 197.608 60.78C198.354 58.0733 199.474 55.6933 200.968 53.64C201.621 52.8 202.088 52.1 202.368 51.54C202.741 50.8867 203.114 50.28 203.488 49.72C203.674 49.16 204.281 48.9733 205.308 49.16C206.428 49.3467 207.221 49.7667 207.688 50.42C208.154 50.3267 208.714 50.9333 209.368 52.24C210.021 53.5467 210.254 54.5733 210.068 55.32C210.068 56.3467 209.694 57.4667 208.948 58.68C208.574 59.0533 208.201 59.6133 207.828 60.36C207.454 61.0133 206.894 61.9 206.148 63.02C205.774 64.2333 205.401 65.4467 205.028 66.66C204.654 67.8733 204.234 68.9933 203.768 70.02C203.301 71.0467 202.788 72.0733 202.228 73.1C201.668 74.1267 201.294 74.9667 201.108 75.62C200.268 77.7667 199.334 79.8667 198.308 81.92C197.374 83.88 196.534 85.98 195.788 88.22C195.041 90.3667 194.248 92.6533 193.408 95.08C192.661 97.4133 191.634 99.6533 190.328 101.8C189.674 102.733 189.161 103.993 188.788 105.58C188.414 107.167 188.041 108.707 187.668 110.2C187.014 111.88 186.408 113.42 185.848 114.82C185.381 116.22 185.148 117.107 185.148 117.48C184.494 119.533 183.981 121.587 183.608 123.64C183.234 125.6 182.628 127.327 181.788 128.82C181.694 130.22 181.274 131.153 180.528 131.62C179.874 132.087 178.754 131.853 177.168 130.92ZM210.628 133.16C209.134 132.973 208.014 132.693 207.268 132.32C206.521 131.853 205.121 130.873 203.068 129.38C201.948 128.26 200.408 126.533 198.448 124.2C196.488 121.867 194.528 119.393 192.568 116.78C190.608 114.073 188.974 111.787 187.668 109.92L193.408 102.22C194.621 103.713 195.601 105.113 196.348 106.42C197.094 107.727 197.701 108.613 198.167 109.08C200.314 112.253 201.994 114.82 203.208 116.78C204.514 118.74 205.681 120.327 206.708 121.54C207.734 122.753 208.808 123.827 209.928 124.76C211.141 125.693 212.634 126.673 214.408 127.7C214.688 127.887 214.968 128.167 215.248 128.54C215.528 128.913 215.621 129.473 215.528 130.22C215.154 131.247 214.734 131.9 214.268 132.18C213.894 132.367 212.681 132.693 210.628 133.16ZM187.248 108.38C186.688 106.793 186.874 105.207 187.808 103.62C188.834 101.94 189.954 100.773 191.168 100.12C191.541 99.4667 191.914 99.0467 192.288 98.86C192.754 98.58 193.034 98.2533 193.128 97.88C193.314 97.5067 193.781 96.9933 194.528 96.34C195.368 95.6867 196.114 95.08 196.768 94.52C198.261 93.5867 199.941 92.4667 201.808 91.16C203.768 89.76 205.634 88.36 207.408 86.96C209.181 85.56 210.674 84.3467 211.888 83.32C213.194 82.2933 213.988 81.64 214.268 81.36C214.548 80.9867 214.921 80.7533 215.388 80.66C215.948 80.4733 216.648 80.5667 217.488 80.94C218.608 81.22 219.354 81.6867 219.728 82.34C220.101 82.9 220.288 84.02 220.288 85.7C220.568 86.7267 220.148 87.8467 219.028 89.06C218.001 90.18 216.414 91.44 214.268 92.84C213.521 93.3067 212.494 94.0067 211.188 94.94C209.974 95.8733 208.901 96.76 207.968 97.6C207.314 97.9733 206.334 98.6267 205.028 99.56C203.814 100.4 202.741 101.24 201.808 102.08C201.061 102.547 200.081 103.387 198.868 104.6C197.654 105.72 196.441 106.56 195.228 107.12C192.241 109.92 190.281 111.413 189.348 111.6C188.414 111.787 187.714 110.713 187.248 108.38Z" fill="white"/>
<path d="M93.38 194.36C93.14 194.52 92.86 194.48 92.54 194.24C92.26 194 91.84 193.56 91.28 192.92C91 192.6 90.82 192.26 90.74 191.9C90.66 191.54 90.68 190.86 90.8 189.86C90.96 189.42 91.04 189 91.04 188.6C91.08 188.2 91.1 187.92 91.1 187.76C91.1 187.52 91.16 186.96 91.28 186.08C91.44 185.2 91.6 184.28 91.76 183.32C91.92 182.32 92.06 181.56 92.18 181.04C92.18 181 92.2 180.9 92.24 180.74C92.28 180.58 92.32 180.44 92.36 180.32C92.44 179.96 92.54 179.48 92.66 178.88C92.82 178.28 92.96 177.54 93.08 176.66C93.4 175.66 93.66 174.68 93.86 173.72C94.1 172.72 94.22 172.04 94.22 171.68C94.22 170.96 94.5 170.44 95.06 170.12C95.1 169.92 95.22 169.62 95.42 169.22C95.62 168.78 95.8 168.42 95.96 168.14C96.76 165.86 97.42 164.06 97.94 162.74C98.46 161.38 99 160.2 99.56 159.2C99.8 158.52 100.06 157.82 100.34 157.1C100.66 156.38 100.98 155.82 101.3 155.42C101.5 154.9 101.96 154.24 102.68 153.44C103.4 152.6 104.16 151.8 104.96 151.04C105.76 150.24 106.4 149.64 106.88 149.24C107.76 148.8 108.46 148.5 108.98 148.34C109.5 148.18 110.18 148.1 111.02 148.1C111.78 148.1 112.28 148.2 112.52 148.4C112.8 148.56 113.2 148.88 113.72 149.36C114.28 149.96 114.6 150.36 114.68 150.56C114.76 150.76 114.8 151.14 114.8 151.7C114.72 152.22 114.5 152.9 114.14 153.74C113.82 154.54 113.46 155.28 113.06 155.96C112.7 156.6 112.4 156.94 112.16 156.98C111.68 157.14 111.32 157.1 111.08 156.86C110.88 156.58 110.78 156.14 110.78 155.54C110.78 155.26 110.7 155 110.54 154.76C110.42 154.48 110.36 154.34 110.36 154.34C110.36 154.22 110.38 154.02 110.42 153.74C110.5 153.42 110.62 153.12 110.78 152.84C110.98 152.44 111.02 152.14 110.9 151.94C110.82 151.74 110.56 151.7 110.12 151.82C110 151.9 109.68 152.14 109.16 152.54C108.64 152.94 108.08 153.4 107.48 153.92C106.92 154.4 106.42 154.86 105.98 155.3C105.54 155.74 105.32 156.02 105.32 156.14C105.32 156.14 105.24 156.32 105.08 156.68C104.92 157 104.62 157.42 104.18 157.94C103.9 158.34 103.64 158.74 103.4 159.14C103.2 159.5 103.1 159.72 103.1 159.8C103.1 159.96 103.08 160.14 103.04 160.34C103.04 160.5 102.94 160.58 102.74 160.58C102.74 160.58 102.68 160.76 102.56 161.12C102.44 161.48 102.22 161.94 101.9 162.5C101.74 162.9 101.54 163.32 101.3 163.76C101.06 164.16 100.86 164.44 100.7 164.6H100.76C100.76 164.6 100.66 164.86 100.46 165.38C100.3 165.86 100.12 166.38 99.92 166.94C99.72 167.46 99.62 167.76 99.62 167.84C99.62 168 99.9 168.08 100.46 168.08C101.06 168.08 101.76 168.02 102.56 167.9C103.36 167.74 104.08 167.58 104.72 167.42C105.28 167.26 105.66 167.18 105.86 167.18C106.06 167.18 106.46 167.26 107.06 167.42C107.38 167.62 107.64 167.92 107.84 168.32C108.08 168.68 108.24 169.04 108.32 169.4C108.44 169.72 108.44 169.96 108.32 170.12C108.28 170.28 107.84 170.5 107 170.78C106.16 171.06 105.32 171.28 104.48 171.44C103.76 171.6 102.88 171.78 101.84 171.98C100.8 172.18 99.88 172.36 99.08 172.52C98.32 172.68 97.94 172.82 97.94 172.94C97.78 172.94 97.64 173.04 97.52 173.24C97.4 173.4 97.34 173.54 97.34 173.66C97.34 174.22 97.26 174.64 97.1 174.92C97.02 175.16 96.88 175.64 96.68 176.36C96.48 177.08 96.26 177.88 96.02 178.76C95.82 179.64 95.64 180.44 95.48 181.16C95.36 181.88 95.3 182.36 95.3 182.6C95.06 182.88 94.92 183.24 94.88 183.68C94.84 184.08 94.82 184.44 94.82 184.76C94.66 185.08 94.56 185.38 94.52 185.66C94.48 185.9 94.46 186.1 94.46 186.26C94.46 186.3 94.46 186.38 94.46 186.5C94.46 186.62 94.44 186.74 94.4 186.86C94.36 187.26 94.3 187.78 94.22 188.42C94.18 189.1 94.16 189.76 94.16 190.4L93.98 192.14C93.94 192.66 93.88 193.1 93.8 193.46C93.72 193.86 93.58 194.16 93.38 194.36ZM113.601 187.1C113.081 187.1 112.661 187 112.341 186.8C112.061 186.6 111.701 186.32 111.261 185.96C110.501 185.16 109.961 184.4 109.641 183.68C109.321 182.92 109.221 182.2 109.341 181.52C109.461 181.2 109.501 180.9 109.461 180.62C109.461 180.3 109.461 180.14 109.461 180.14C109.261 179.94 109.201 179.82 109.281 179.78C109.361 179.7 109.441 179.58 109.521 179.42C109.761 179.42 109.841 179.2 109.761 178.76C109.681 178.44 109.841 177.74 110.241 176.66C110.641 175.58 111.141 174.56 111.741 173.6C111.981 173.2 112.341 172.68 112.821 172.04C113.301 171.36 113.821 170.7 114.381 170.06C114.981 169.38 115.521 168.84 116.001 168.44C117.001 167.6 117.881 166.98 118.641 166.58C119.401 166.18 120.221 165.88 121.101 165.68C121.981 165.48 122.581 165.38 122.901 165.38C123.261 165.38 123.741 165.7 124.341 166.34C125.261 166.74 125.921 167.22 126.321 167.78C126.761 168.34 127.041 169.16 127.161 170.24C127.281 171.44 127.181 172.82 126.861 174.38C126.581 175.9 125.641 177.8 124.041 180.08C123.041 181.52 122.121 182.6 121.281 183.32C120.441 184 119.441 184.68 118.281 185.36C117.441 185.92 116.681 186.34 116.001 186.62C115.321 186.86 114.521 187.02 113.601 187.1ZM119.361 180.74C120.321 179.66 121.081 178.64 121.641 177.68C122.241 176.72 122.801 175.5 123.321 174.02C123.481 173.58 123.581 173.04 123.621 172.4C123.661 171.72 123.641 171.1 123.561 170.54C123.521 169.94 123.381 169.6 123.141 169.52C122.661 169.24 122.081 169.16 121.401 169.28C120.721 169.36 119.981 169.74 119.181 170.42C117.941 171.46 116.861 172.76 115.941 174.32C115.021 175.84 114.121 177.58 113.241 179.54C112.641 180.98 112.501 182.14 112.821 183.02C113.181 183.86 113.921 184.16 115.041 183.92C116.201 183.64 117.641 182.58 119.361 180.74ZM134.273 186.14C134.153 186.18 133.953 186.16 133.673 186.08C133.393 186 133.113 185.9 132.833 185.78C132.553 185.66 132.373 185.56 132.293 185.48C132.133 185.32 131.973 185.08 131.813 184.76C131.693 184.44 131.693 183.98 131.813 183.38C131.933 182.74 132.333 181.92 133.013 180.92C133.213 180.52 133.453 179.92 133.733 179.12C134.013 178.32 134.293 177.48 134.573 176.6C134.893 175.68 135.173 174.86 135.413 174.14C135.693 173.42 135.893 172.92 136.013 172.64C136.093 171.96 136.053 171.48 135.893 171.2C135.773 170.88 135.433 170.7 134.873 170.66C134.473 170.66 134.153 170.62 133.913 170.54C133.713 170.46 133.613 170.06 133.613 169.34C133.693 168.78 133.833 168.4 134.033 168.2C134.273 167.96 134.593 167.7 134.993 167.42C135.393 167.22 135.793 167.08 136.193 167C136.633 166.92 137.053 166.9 137.453 166.94C137.853 166.98 138.173 167.12 138.413 167.36C138.693 167.52 138.873 167.88 138.953 168.44C139.033 168.96 139.073 169.5 139.073 170.06C139.113 170.62 139.153 171.04 139.193 171.32C139.593 171 140.133 170.56 140.813 170C141.533 169.4 142.153 168.84 142.673 168.32C143.313 167.88 144.073 167.44 144.953 167C145.833 166.52 146.473 166.28 146.873 166.28C147.313 166.28 147.753 166.4 148.193 166.64C148.633 166.84 148.933 167.1 149.093 167.42C149.493 168.1 149.673 168.7 149.633 169.22C149.633 169.74 149.413 170.28 148.973 170.84C148.573 171.36 148.073 171.72 147.473 171.92C146.913 172.12 146.553 172.22 146.393 172.22C146.153 172.22 145.853 172.04 145.493 171.68C145.133 171.32 144.933 171.02 144.893 170.78C144.893 170.66 144.633 170.78 144.113 171.14C143.633 171.46 143.093 171.88 142.493 172.4C141.893 172.88 141.393 173.32 140.993 173.72C140.313 174.56 139.593 175.7 138.833 177.14C138.073 178.58 137.173 180.32 136.133 182.36C135.653 183.36 135.313 184.22 135.113 184.94C134.913 185.62 134.633 186.02 134.273 186.14Z" fill="white"/>
</svg>
